<svg xmlns="http://www.w3.org/2000/svg" id="Layer_1" data-name="Layer 1" viewBox="0 0 503.98 226.77">
  <defs>
    <style>
      .cls-1 {
        fill: #010d22;
      }

      .cls-1, .cls-2, .cls-3, .cls-4 {
        stroke-width: 0px;
      }

      .cls-2 {
        fill: #000f20;
      }

      .cls-3 {
        fill: #9ea1a2;
      }

      .cls-4 {
        fill: #ffb600;
      }
    </style>
  </defs>
  <path class="cls-1" d="m382.99,133.85c-.18-.25-.38-.49-.54-.75-6.3-9.71-12.6-19.41-18.88-29.13-.25-.38-.89-.8-.29-1.35.55-.51.99.07,1.4.3,5.45,3.09,10.89,6.18,16.3,9.33.95.55,1.59.5,2.49-.14,11.53-8.3,23.1-16.55,34.65-24.82.26-.18.51-.37.77-.55.39-.27.8-.64,1.23-.11.4.49-.13.75-.36,1.05-5.34,6.78-10.69,13.55-16.04,20.32-6.56,8.3-13.13,16.59-19.71,24.88-.28.35-.45.83-1.01.98Z"/>
  <path class="cls-2" d="m493.55,194.73l-24.62-17.33c8.3-12.46,13.94-26.65,16.46-41.86,4.66-28.18-1.94-56.49-18.57-79.71-16.63-23.22-41.31-38.57-69.49-43.23-28.18-4.66-56.49,1.93-79.71,18.57-23.22,16.63-38.57,41.31-43.23,69.49-4.66,28.18,1.94,56.49,18.57,79.71,16.63,23.22,41.31,38.57,69.49,43.23,5.9.98,11.8,1.46,17.67,1.46,22.14,0,43.68-6.88,62.04-20.03.38-.27.76-.56,1.14-.83l29.15,20.52,21.11-29.99Zm-175.31-32.47c-24.35-33.99-16.5-81.46,17.49-105.81,13.02-9.33,28.29-14.2,44-14.2,4.16,0,8.35.34,12.53,1.03,19.98,3.3,37.49,14.19,49.28,30.66,11.79,16.47,16.47,36.54,13.17,56.53-3.3,19.98-14.19,37.49-30.66,49.28-33.99,24.35-81.46,16.5-105.81-17.49Z"/>
  <g>
    <path class="cls-2" d="m104.95,40.42c18.78,0,31.74,4.83,37.79,7.7l3.27,1.55,7.98-26.37-2.28-1.19c-3.99-2.09-19.22-8.91-47.59-8.91-30.5,0-56.65,10.04-75.6,29.04C9.53,61.29-.51,87.6-.51,118.34c0,31.32,9.8,57.4,28.33,75.42,17.62,17.13,42.05,26.19,70.64,26.19,24.86,0,43.57-4.96,52.8-9.6l2.23-1.12-6.58-26.13-3.43,1.64c-9.91,4.73-25.19,7.67-39.86,7.67-44.72,0-71.41-27.99-71.41-74.87S59.4,40.42,104.95,40.42Z"/>
    <rect class="cls-2" x="175.82" y="17.21" width="30.09" height="199.89"/>
    <rect class="cls-2" x="227.94" y="78.96" width="30.09" height="138.14"/>
    <path class="cls-2" d="m243.03,26.73c-4.96,0-9.52,1.84-12.85,5.17-3.35,3.36-5.19,7.93-5.18,12.86-.01,5.04,1.83,9.66,5.18,13.03,3.22,3.22,7.62,5,12.41,5,5.31,0,9.91-1.79,13.28-5.17,3.29-3.3,5.1-7.87,5.09-12.86v-.02c-.08-10.44-7.62-18.02-17.93-18.02Z"/>
  </g>
  <g>
    <polygon class="cls-4" points="373.71 2 380.69 1.72 380.66 4.14 373.81 4.09 373.71 2"/>
    <polygon class="cls-4" points="387.68 1.83 394.67 2.33 394.25 5.51 387.48 4.62 387.68 1.83"/>
    <polygon class="cls-4" points="401.63 3.21 408.54 4.49 407.53 8.52 400.94 6.82 401.63 3.21"/>
    <polygon class="cls-4" points="415.39 6.15 422.15 8.2 420.28 13.11 413.98 10.63 415.39 6.15"/>
    <polygon class="cls-4" points="428.8 10.62 435.31 13.44 432.35 19.16 426.41 15.97 428.8 10.62"/>
    <polygon class="cls-4" points="441.67 16.64 447.84 20.21 443.57 26.53 438.07 22.68 441.67 16.64"/>
    <path class="cls-4" d="m453.82,24.13l5.74,4.29-5.74,6.67c-1.67-1.46-3.33-2.94-5-4.42l5-6.54Z"/>
    <polygon class="cls-4" points="465.04 33.06 470.25 38.03 463 44.7 458.56 39.77 465.04 33.06"/>
    <polygon class="cls-4" points="475.17 43.3 479.75 48.89 471 55.23 467.14 49.87 475.17 43.3"/>
    <polygon class="cls-4" points="483.99 54.76 487.87 60.89 477.76 66.54 474.54 60.8 483.99 54.76"/>
    <polygon class="cls-4" points="491.35 67.25 494.46 73.82 483.21 78.48 480.66 72.43 491.35 67.25"/>
    <polygon class="cls-4" points="497.14 80.57 499.43 87.47 487.33 90.92 485.45 84.64 497.14 80.57"/>
    <polygon class="cls-4" points="501.29 94.51 502.73 101.65 490.07 103.73 488.89 97.29 501.29 94.51"/>
    <path class="cls-4" d="m503.76,108.87c.2,2.42.42,4.84.6,7.27l-13.03.6c-.16-2.17-.3-4.34-.44-6.52l12.87-1.35Z"/>
    <polygon class="cls-4" points="504.49 123.43 504.19 130.72 491.14 129.79 491.42 123.26 504.49 123.43"/>
    <path class="cls-4" d="m503.47,137.98c-.37,2.4-.78,4.8-1.18,7.2l-12.84-2.45c.34-2.15.65-4.3,1.01-6.45l13,1.7Z"/>
    <polygon class="cls-4" points="500.68 152.3 498.66 159.3 486.33 155.42 488.08 149.12 500.68 152.3"/>
    <polygon class="cls-4" points="496.22 166.17 493.38 172.87 481.8 167.69 484.24 161.61 496.22 166.17"/>
    <polygon class="cls-4" points="490.15 179.39 486.54 185.7 475.91 179.38 479.02 173.61 490.15 179.39"/>
  </g>
  <g>
    <polygon class="cls-3" points="373.71 47.09 377.88 46.92 377.86 48.38 373.77 48.34 373.71 47.09"/>
    <polygon class="cls-3" points="382.05 46.99 386.23 47.29 385.98 49.19 381.94 48.66 382.05 46.99"/>
    <polygon class="cls-3" points="390.38 47.82 394.51 48.58 393.9 50.99 389.97 49.97 390.38 47.82"/>
    <polygon class="cls-3" points="398.6 49.57 402.63 50.79 401.52 53.73 397.76 52.25 398.6 49.57"/>
    <polygon class="cls-3" points="406.6 52.24 410.49 53.93 408.72 57.34 405.18 55.43 406.6 52.24"/>
    <polygon class="cls-3" points="414.29 55.84 417.98 57.96 415.42 61.74 412.14 59.44 414.29 55.84"/>
    <path class="cls-3" d="m421.54,60.31l3.43,2.56-3.43,3.98c-1-.87-1.99-1.75-2.98-2.64l2.98-3.9Z"/>
    <polygon class="cls-3" points="428.24 65.64 431.35 68.6 427.02 72.59 424.37 69.64 428.24 65.64"/>
    <polygon class="cls-3" points="434.29 71.76 437.03 75.09 431.8 78.88 429.5 75.67 434.29 71.76"/>
    <polygon class="cls-3" points="439.56 78.6 441.87 82.25 435.83 85.63 433.91 82.2 439.56 78.6"/>
    <polygon class="cls-3" points="443.95 86.05 445.81 89.97 439.09 92.76 437.57 89.15 443.95 86.05"/>
    <polygon class="cls-3" points="447.41 94.01 448.78 98.13 441.55 100.19 440.43 96.44 447.41 94.01"/>
    <polygon class="cls-3" points="449.88 102.33 450.75 106.59 443.19 107.83 442.48 103.99 449.88 102.33"/>
    <path class="cls-3" d="m451.36,110.9c.12,1.45.25,2.89.36,4.34l-7.78.36c-.1-1.3-.18-2.59-.26-3.89l7.69-.8Z"/>
    <polygon class="cls-3" points="451.79 119.6 451.62 123.95 443.82 123.39 443.99 119.5 451.79 119.6"/>
    <path class="cls-3" d="m451.19,128.29c-.22,1.44-.47,2.87-.7,4.3l-7.66-1.46c.2-1.28.39-2.57.61-3.85l7.76,1.02Z"/>
    <polygon class="cls-3" points="449.52 136.83 448.32 141.01 440.95 138.7 442 134.94 449.52 136.83"/>
    <polygon class="cls-3" points="446.86 145.11 445.16 149.11 438.25 146.02 439.7 142.39 446.86 145.11"/>
    <polygon class="cls-3" points="443.23 153.01 441.08 156.78 434.73 153 436.59 149.56 443.23 153.01"/>
  </g>
<script xmlns="" id="vsc-settings-data">{"audioBoolean":false,"blacklist":"www.instagram.com\ntwitter.com\nvine.co\nimgur.com\nteams.microsoft.com\n","controllerButtonSize":14,"controllerOpacity":0.3,"defaultLogLevel":4,"displayKeyCode":86,"enabled":true,"forceLastSavedSpeed":false,"keyBindings":[{"action":"slower","force":false,"key":83,"predefined":true,"value":0.1},{"action":"faster","force":false,"key":68,"predefined":true,"value":0.1},{"action":"rewind","force":false,"key":90,"predefined":true,"value":10},{"action":"advance","force":false,"key":88,"predefined":true,"value":10},{"action":"reset","force":false,"key":82,"predefined":true,"value":1.8},{"action":"fast","force":false,"key":71,"predefined":true,"value":1.8},{"action":"display","force":false,"key":86,"predefined":true,"value":0}],"lastSpeed":1,"logLevel":3,"rememberSpeed":false,"speeds":{"blob:https://www.youtube.com/03daf089-b6ba-4735-b17d-ad68875c9c74":1,"blob:https://www.youtube.com/08f2a612-41c6-4795-bf0f-90b46f04c29c":1,"blob:https://www.youtube.com/090fb078-fd28-4ae5-a282-4d18e62a01d2":1,"blob:https://www.youtube.com/0a2e675a-1645-4238-a438-b382fdc88c17":1,"blob:https://www.youtube.com/0f170864-cbbe-46de-8ca1-8a7e3e7ba0b1":1,"blob:https://www.youtube.com/1461dfda-31c4-4351-9dd6-b2b06afdf609":1,"blob:https://www.youtube.com/1a7a8744-0883-49b7-aa92-25547f63c72f":1,"blob:https://www.youtube.com/2025a074-dabb-41fc-8199-cb41194b31cb":1,"blob:https://www.youtube.com/2231c31e-422c-45e9-a9cc-c2152c5ced53":1,"blob:https://www.youtube.com/23386650-e273-45de-83a5-76e342f6364f":1,"blob:https://www.youtube.com/25251fc7-2ad3-41d7-a5de-4faea942dca2":1,"blob:https://www.youtube.com/2756c585-aa28-42ee-a664-3a417113764f":1,"blob:https://www.youtube.com/3eaf156b-fc33-4b42-97cd-33a01a3ca6a5":1,"blob:https://www.youtube.com/48315525-a534-4e0a-8f3c-24c097462c5a":1,"blob:https://www.youtube.com/4ad73b98-1555-46aa-aba0-2552a9218fad":1,"blob:https://www.youtube.com/4e063e1b-4c32-4c98-893b-6e1fdb486e7d":1,"blob:https://www.youtube.com/4e4dcbd1-150b-45c7-b4d7-2a5d31850e90":1,"blob:https://www.youtube.com/4f5065c3-65a6-4754-8635-09a2a5067d11":1,"blob:https://www.youtube.com/4f9d5cf6-fafe-4b0d-adc3-6d7889dd312e":1,"blob:https://www.youtube.com/52b611d3-1096-4e2a-9909-29ca39a14485":1,"blob:https://www.youtube.com/557dfb9b-004d-4941-8f79-e173d9ca9a7f":1,"blob:https://www.youtube.com/5a5f417c-d4fa-485a-b8bc-36f6866ef780":1,"blob:https://www.youtube.com/5e929755-78c8-413a-9adf-ebdb93d79cb3":1,"blob:https://www.youtube.com/64b1fc04-bbcc-4b7b-ae45-7c32b8dbbd43":1,"blob:https://www.youtube.com/666edba1-7ba2-4b03-b1bf-68d3e03cca02":1,"blob:https://www.youtube.com/6a700822-c361-47b2-bbe7-e517a5792187":1,"blob:https://www.youtube.com/6cff31ec-ef46-4060-9286-1599aacdff4f":1,"blob:https://www.youtube.com/6fac3422-35b9-4583-9541-73caaa8e5b7f":1,"blob:https://www.youtube.com/70f54fdd-7cb8-4f71-9d83-43994f973724":1,"blob:https://www.youtube.com/75b5097e-93d7-4455-b31a-51360ea25df8":1,"blob:https://www.youtube.com/76feae88-2b66-4507-a1f5-19ef36900b72":1,"blob:https://www.youtube.com/7cdb09ea-413c-4123-b40c-73fdc0bde629":1,"blob:https://www.youtube.com/81bdeea8-aff4-4533-a361-d699a3f2c741":1,"blob:https://www.youtube.com/828bfb3e-55a5-4701-b528-282b682a54c2":1,"blob:https://www.youtube.com/83bcb922-beb2-41a7-9f92-55c533bcf2ad":1,"blob:https://www.youtube.com/8899e20e-2210-4fb2-befa-bce617c3fa5e":1,"blob:https://www.youtube.com/9006ef35-4e9a-4878-94b9-0fe255bc1080":1,"blob:https://www.youtube.com/96fc0422-a9fc-4d0b-b709-74fc4ecaad48":1,"blob:https://www.youtube.com/97a80056-ff66-4da5-a43a-a3a42b0a0675":1,"blob:https://www.youtube.com/98aa9d07-3584-4d42-9870-a919efbd2f02":1,"blob:https://www.youtube.com/993744af-1663-48ec-a191-eca3563e3cf1":1,"blob:https://www.youtube.com/999d523f-1b96-4461-a41a-0208ff24a18c":1,"blob:https://www.youtube.com/9d97483e-9ed0-405a-aeef-05c50be44a57":1,"blob:https://www.youtube.com/a455eb13-a329-4710-be19-3591626d7e59":1,"blob:https://www.youtube.com/a7a2dfc4-0941-432b-9ee2-03d03030051a":1,"blob:https://www.youtube.com/b227c9ca-9b11-4926-8098-9d86ce0c29e5":1,"blob:https://www.youtube.com/b3a0f910-3e4e-4ebd-b211-865a41b27ddd":1,"blob:https://www.youtube.com/b4d37796-c6bc-4a38-a2dd-d4763a4dc534":1,"blob:https://www.youtube.com/b598ce6d-3ed2-418e-9e34-eac5e8fc699d":1,"blob:https://www.youtube.com/b8fe8292-46de-44c1-9095-c8b9ac58fd66":1,"blob:https://www.youtube.com/b927c3e7-eb4e-46c1-b90e-29540eb121bb":1,"blob:https://www.youtube.com/bb3f6f4c-34d6-49e0-b2f8-c3c04b6ef36b":1,"blob:https://www.youtube.com/bf2b7b8a-feb1-48cc-85dd-8f01b2880697":1,"blob:https://www.youtube.com/c7b99a1a-1995-439b-a602-da317973a8ee":1,"blob:https://www.youtube.com/ca3db50b-6b3c-4d97-a3ab-07a8fdc88da7":1,"blob:https://www.youtube.com/cb819bb5-351b-4af1-8ca7-b52afd69034e":1,"blob:https://www.youtube.com/ce3a87dc-26da-4bdf-9fb0-66fe18797739":1,"blob:https://www.youtube.com/ce3d839b-19f2-4b42-a816-f471b4ee8ba4":1,"blob:https://www.youtube.com/d19b62d2-f1c8-42bf-b8e1-692f9f4ae964":1,"blob:https://www.youtube.com/d1c5bc5c-866a-442f-bee6-072ed6b80501":1,"blob:https://www.youtube.com/d37e5954-adc4-4851-9908-449f77db36d9":1,"blob:https://www.youtube.com/d5fdc909-c31f-42b1-a4b8-baa60cf05b49":1,"blob:https://www.youtube.com/d8bd7aeb-79ed-4164-9ffb-95ad7891a155":1,"blob:https://www.youtube.com/dc854e7a-71c2-4428-be2c-175601b3ed7f":1,"blob:https://www.youtube.com/ddc55f24-8eba-4199-ba96-4967896a489d":1,"blob:https://www.youtube.com/dff91a15-9df9-420e-81aa-c338c4abb97d":1,"blob:https://www.youtube.com/e30f4249-393f-47e8-8b74-1d2c103dc865":1,"blob:https://www.youtube.com/e5475cdb-b958-487c-a901-98a5080d6caa":1,"blob:https://www.youtube.com/ea59deb5-523b-4107-bce6-ccf27e8ac93f":1,"blob:https://www.youtube.com/ec499875-abff-41ba-a273-19622b6cd0f4":1,"blob:https://www.youtube.com/ecebb9a0-52d1-498c-b7cd-cb09133eb6a8":1,"blob:https://www.youtube.com/ee7fc061-b50c-4247-a2fe-44b70cc94670":1,"blob:https://www.youtube.com/ef8293ec-3bf4-4bbb-a6b8-c1eddb81ba21":1,"blob:https://www.youtube.com/f36e076c-adaf-43b5-b951-a056f152aab5":1,"blob:https://www.youtube.com/f4ac2498-45fa-4055-a5e8-e466b77d9b5c":1,"blob:https://www.youtube.com/f9a19f32-da0e-4157-9959-291f13801912":1,"blob:https://www.youtube.com/fa2ca9d4-219d-4763-8923-7a7ac7985bf1":1},"startHidden":false,"version":"0.5.3"}</script><script xmlns=""/></svg>